<?xml version="1.0" encoding="iso-8859-1"?>
<!-- Generator: Adobe Illustrator 19.1.0, SVG Export Plug-In . SVG Version: 6.00 Build 0)  -->
<svg version="1.1" id="Capa_1" xmlns="http://www.w3.org/2000/svg" xmlns:xlink="http://www.w3.org/1999/xlink" x="0px" y="0px"
	 viewBox="0 0 297.653 297.653" style="enable-background:new 0 0 297.653 297.653;" xml:space="preserve">
<g>
	<path d="M38.167,66.826c-3.271,0-5.996,1.966-7.236,4.778c-0.964-3.336-3.993-5.778-7.639-5.778c-3.647,0-6.696,2.442-7.66,5.778
		c-1.24-2.812-4.205-4.778-7.475-4.778c-4.418,0-8.156,3.582-8.156,8v37.363c0,9.714,7,18.017,15,21.223v106.414
		c0,4.418,3.582,8,8,8s8-3.582,8-8V133.411c9-3.206,15-11.509,15-21.222V74.826C46,70.408,42.584,66.826,38.167,66.826z"/>
	<path style="fill:#B4EBDD;" d="M151.332,65.492C105.383,65.492,68,102.876,68,148.826s37.383,83.334,83.332,83.334
		c45.95,0,83.334-37.384,83.334-83.334S197.282,65.492,151.332,65.492z M151.332,216.159c-37.126,0-67.331-30.205-67.331-67.333
		s30.205-67.333,67.331-67.333c37.128,0,67.333,30.205,67.333,67.333S188.46,216.159,151.332,216.159z"/>
	<path d="M151.332,49.492C96.56,49.492,52,94.053,52,148.826s44.56,99.334,99.332,99.334c54.772,0,99.334-44.561,99.334-99.334
		S206.104,49.492,151.332,49.492z M151.332,232.16C105.383,232.16,68,194.777,68,148.826s37.383-83.334,83.332-83.334
		c45.95,0,83.334,37.384,83.334,83.334S197.282,232.16,151.332,232.16z"/>
	<path style="fill:#FFFFFF;" d="M151.332,97.493c-28.304,0-51.331,23.028-51.331,51.333s23.027,51.333,51.331,51.333
		c28.305,0,51.333-23.028,51.333-51.333S179.637,97.493,151.332,97.493z"/>
	<path d="M151.332,81.493c-37.126,0-67.331,30.205-67.331,67.333s30.205,67.333,67.331,67.333c37.128,0,67.333-30.205,67.333-67.333
		S188.46,81.493,151.332,81.493z M151.332,200.159c-28.304,0-51.331-23.028-51.331-51.333s23.027-51.333,51.331-51.333
		c28.305,0,51.333,23.028,51.333,51.333S179.637,200.159,151.332,200.159z"/>
	<path d="M297.483,131.124l-16.334-75c-0.869-3.993-4.764-6.688-8.839-6.252c-4.064,0.438-7.31,3.867-7.31,7.954v182
		c0,4.418,3.582,8,8,8s8-3.582,8-8v-90.749l13.3-9.851C296.804,137.348,298.149,134.183,297.483,131.124z"/>
</g>
<g>
</g>
<g>
</g>
<g>
</g>
<g>
</g>
<g>
</g>
<g>
</g>
<g>
</g>
<g>
</g>
<g>
</g>
<g>
</g>
<g>
</g>
<g>
</g>
<g>
</g>
<g>
</g>
<g>
</g>
</svg>
